<?xml version="1.0" standalone="no"?>
<!DOCTYPE svg PUBLIC "-//W3C//DTD SVG 20010904//EN"
 "http://www.w3.org/TR/2001/REC-SVG-20010904/DTD/svg10.dtd">
<svg version="1.0" xmlns="http://www.w3.org/2000/svg"
 width="800.000000pt" height="800.000000pt" viewBox="0 0 800.000000 800.000000"
 preserveAspectRatio="xMidYMid meet">
<metadata>
Created by potrace 1.14, written by Peter Selinger 2001-2017
</metadata>
<g transform="translate(0.000000,800.000000) scale(0.100000,-0.100000)"
fill="#000000" stroke="none">
<path d="M3758 7995 c-1 -1 -46 -6 -98 -9 -52 -4 -104 -9 -115 -11 -11 -3 -47
-7 -79 -10 -32 -3 -62 -7 -65 -10 -4 -2 -30 -6 -58 -9 -63 -8 -298 -59 -395
-86 -40 -12 -80 -23 -88 -25 -8 -2 -62 -19 -120 -38 -595 -200 -1111 -518
-1550 -957 -183 -182 -202 -203 -312 -340 -349 -435 -607 -947 -748 -1485 -23
-87 -64 -283 -75 -355 -4 -25 -9 -54 -11 -65 -44 -234 -53 -730 -19 -1055 19
-177 93 -534 141 -681 8 -25 16 -54 19 -65 20 -96 156 -423 256 -619 82 -160
93 -180 102 -183 4 -2 7 -8 7 -13 0 -11 126 -208 194 -304 134 -187 233 -302
431 -500 216 -217 365 -341 597 -496 540 -362 1130 -578 1783 -654 28 -3 66
-8 85 -11 61 -9 582 -12 655 -4 39 4 102 11 140 14 88 8 146 15 165 21 8 2 36
7 62 10 26 3 109 19 185 36 408 89 787 235 1145 441 241 139 440 281 648 462
77 68 342 337 404 411 32 39 65 79 75 90 206 246 450 658 580 982 46 114 110
288 116 318 3 11 9 31 15 45 23 59 97 378 115 500 4 25 9 54 11 65 26 139 39
328 39 595 0 419 -46 752 -152 1110 -14 46 -27 91 -28 100 -16 71 -139 377
-214 530 -55 113 -80 160 -151 285 -96 170 -284 430 -439 610 -55 64 -351 356
-405 400 -27 22 -54 45 -60 50 -17 17 -228 179 -247 190 -9 6 -56 36 -104 68
-334 223 -746 409 -1142 516 -102 28 -323 76 -398 88 -16 2 -55 8 -85 13 -30
5 -86 12 -125 16 -38 4 -81 8 -95 11 -30 5 -587 13 -592 8z"/>
</g>
</svg>
